<?xml version="1.0" encoding="UTF-8" standalone="no"?>
<svg
   version="1.1"
   width="432.87762"
   height="165.2493"
   id="svg22"
   viewBox="0 0 432.87762 165.2493"
   xmlns:inkscape="http://www.inkscape.org/namespaces/inkscape"
   xmlns:sodipodi="http://sodipodi.sourceforge.net/DTD/sodipodi-0.dtd"
   xmlns="http://www.w3.org/2000/svg"
   xmlns:svg="http://www.w3.org/2000/svg">
  <defs
     id="defs26" />
  <sodipodi:namedview
     id="namedview24"
     pagecolor="#ffffff"
     bordercolor="#666666"
     borderopacity="1.0"
     inkscape:pageshadow="2"
     inkscape:pageopacity="0.0"
     inkscape:pagecheckerboard="false"
     showgrid="false"
     inkscape:zoom="1.7081493"
     inkscape:cx="170.35982"
     inkscape:cy="166.55453"
     inkscape:window-width="1858"
     inkscape:window-height="1177"
     inkscape:window-x="54"
     inkscape:window-y="-8"
     inkscape:window-maximized="1"
     inkscape:current-layer="svg22"
     showguides="true"
     width="841.88977px"
     fit-margin-top="0"
     fit-margin-left="0"
     fit-margin-right="0"
     fit-margin-bottom="0"
     showborder="false" />
  <path
     d="m 0.09441969,161.8868 c -0.1212,0.467 -0.1305,0.8965 0,1.2796 0.1215,0.3735 0.3459,0.6725 0.6821,0.8968 0.32690001,0.2241 0.73800001,0.3363 1.22370001,0.3456 h 5.3806 c 0.4951,-0.009 0.9621,-0.1215 1.4012,-0.3456 0.4484,-0.2243 0.8312,-0.5326 1.1582,-0.9154 0.3269003,-0.3925 0.5605003,-0.8316 0.6914003,-1.3173 l 1.8495,-6.8939 h 19.4485 v 6.8939 c 0.009,0.4857 0.1215,0.9248 0.3456,1.3173 0.2243,0.3828 0.5326,0.6911 0.9154,0.9154 0.3925,0.2241 0.8316,0.3363 1.3173,0.3456 h 5.1562 c 0.4764,-0.009 0.9062,-0.1215 1.2893,-0.3456 0.3922,-0.2243 0.7004,-0.5233 0.9341,-0.8968 0.2334,-0.3831 0.3456,-0.8126 0.3549,-1.2796 v -34.2454 c 0,-0.4577 -0.1029,-0.8685 -0.3083,-1.2517 -0.2054,-0.3828 -0.4857,-0.6818 -0.8405,-0.9155 -0.3459,-0.2333 -0.7474,-0.3455 -1.2051,-0.3548 h -14.7407 c -1.999,-0.009 -3.9607,0.1308 -5.8663,0.4391 -1.9148,0.3082 -3.6898,0.8499 -5.3339,1.6252 -1.6439,0.7753 -3.064,1.8682 -4.2688003,3.26 -1.2051,1.3919 -2.1019,3.1762 -2.6904,5.334 z M 16.90902,138.3653 c 0.3083,-1.1302 0.8033,-2.1019 1.4944,-2.9238 0.6821,-0.8316 1.5133,-1.4667 2.494,-1.9055 0.9811,-0.4484 2.0553,-0.6821 3.2418,-0.6821 h 7.7904 v 14.3481 h -17.4308 z m 50.1628,18.533 c -2.4848,0.009 -4.3157,-0.6538 -5.4835,-1.9617 -1.1768,-1.317 -1.756,-3.316 -1.7467,-6.0065 v -21.2324 c -0.009,-0.4861 -0.1215,-0.9248 -0.3549,-1.3173 -0.2337,-0.3828 -0.5419,-0.6911 -0.9344,-0.9155 -0.3828,-0.224 -0.8126,-0.3455 -1.289,-0.3455 h -5.1003 c -0.495,0 -0.9341,0.1215 -1.3266,0.3455 -0.4014,0.2244 -0.7097,0.5327 -0.9434,0.9155 -0.2427,0.3925 -0.3549,0.8312 -0.3642,1.3173 v 21.1672 c 0,3.3256 0.6445,6.1652 1.9335,8.5098 1.2893,2.3449 3.2134,4.1382 5.7731,5.3806 2.5596,1.2424 5.7448,1.8682 9.5561,1.8775 h 4.9322 c 3.8113,-0.009 6.9965,-0.6351 9.5561,-1.8775 2.5596,-1.2424 4.4838,-3.0357 5.7731,-5.3806 1.2889,-2.3446 1.9334,-5.1842 1.9334,-8.5098 v -21.1672 c -0.009,-0.4861 -0.1215,-0.9248 -0.3548,-1.3173 -0.2337,-0.3828 -0.5513,-0.6911 -0.9435,-0.9155 -0.4018,-0.224 -0.8409,-0.3455 -1.3359,-0.3455 h -5.1003 c -0.467,0 -0.9061,0.1215 -1.2893,0.3455 -0.3921,0.2244 -0.7004,0.5327 -0.9341,0.9155 -0.224,0.3925 -0.3455,0.8312 -0.3549,1.3173 v 21.2324 c 0.009,2.6905 -0.5699,4.6895 -1.7467,6.0065 -1.1678,1.3079 -2.9987,1.971 -5.4834,1.9617 z m 27.7345,-31.7789 c -0.4853,0 -0.926,0.1196 -1.3169,0.3455 -0.3841,0.2221 -0.6914,0.533 -0.9155,0.9155 -0.224,0.3831 -0.3455,0.8222 -0.3455,1.3173 v 2.5779 c 0,0.4854 0.1192,0.9261 0.3455,1.3173 0.2218,0.3838 0.5314,0.6933 0.9155,0.9154 0.3909,0.226 0.8312,0.3456 1.3169,0.3456 h 12.2187 v 29.0235 c 0,0.4761 0.1234,0.9049 0.3548,1.2797 0.2353,0.3815 0.5433,0.6802 0.9341,0.9061 0.3842,0.2221 0.8126,0.3456 1.289,0.3456 h 5.1566 c 0.4763,0 0.9051,-0.1238 1.2889,-0.3456 0.3912,-0.2263 0.6989,-0.5249 0.9342,-0.9061 0.2314,-0.3751 0.3551,-0.8033 0.3551,-1.2797 v -29.0235 h 12.2183 c 0.4951,0 0.9345,-0.1215 1.3173,-0.3456 0.3828,-0.224 0.6933,-0.5316 0.9155,-0.9154 0.2259,-0.3912 0.3455,-0.8316 0.3455,-1.3173 v -2.5779 c 0,-0.4954 -0.1215,-0.9345 -0.3455,-1.3173 -0.2241,-0.3828 -0.5327,-0.6914 -0.9155,-0.9155 -0.3828,-0.224 -0.8226,-0.3455 -1.3173,-0.3455 z m 59.3621,6.6136 c 2.793,0 5.0547,0.5127 6.7725,1.5134 1.7284,1.007 2.9817,2.4844 3.7737,4.4182 0.7956,1.9421 1.1678,4.3156 1.1678,7.1276 0,2.8116 -0.3754,5.1839 -1.1678,7.118 -0.7952,1.9418 -2.045,3.4208 -3.7737,4.4278 -1.7175,1.0007 -3.9795,1.5131 -6.7725,1.5131 -2.793,0 -5.0466,-0.5105 -6.7724,-1.5131 -1.7297,-1.0051 -2.9785,-2.486 -3.774,-4.4278 -0.7921,-1.9341 -1.1675,-4.3064 -1.1675,-7.118 0,-2.812 0.3719,-5.1858 1.1675,-7.1276 0.792,-1.9341 2.0443,-3.4131 3.774,-4.4182 1.7258,-1.0026 3.9794,-1.5134 6.7724,-1.5134 z m -22.0267,13.0592 c 0,3.6336 0.5011,6.7515 1.4761,9.3411 0.9768,2.5943 2.4027,4.7155 4.2873,6.3523 1.8795,1.6319 4.1855,2.8399 6.9126,3.6149 2.7275,0.775 5.8384,1.1488 9.3507,1.1488 3.5124,0 6.6233,-0.3738 9.3508,-1.1488 2.7271,-0.775 5.0373,-1.9781 6.9219,-3.6149 1.8794,-1.632 3.3095,-3.7548 4.2873,-6.3523 0.974,-2.5863 1.4668,-5.7075 1.4668,-9.3411 0,-3.6339 -0.4928,-6.7551 -1.4668,-9.3414 -0.9778,-2.5976 -2.4104,-4.7171 -4.2873,-6.352 -1.8872,-1.6432 -4.1958,-2.8454 -6.9219,-3.6152 -2.7284,-0.7708 -5.8384,-1.1489 -9.3508,-1.1489 -3.5123,0 -6.6223,0.3781 -9.3507,1.1489 -2.7261,0.7698 -5.0308,1.9762 -6.9126,3.6152 -1.8823,1.639 -3.3105,3.7577 -4.2873,6.352 -0.975,2.5895 -1.4761,5.7075 -1.4761,9.3414 z m 70.3602,17.0946 c 0,0.4667 0.1238,0.8952 0.3552,1.2703 0.2353,0.3812 0.5429,0.6798 0.9341,0.9061 0.3838,0.2218 0.8126,0.3456 1.289,0.3456 h 5.1003 c 0.4953,0 0.9331,-0.1235 1.3266,-0.3549 0.4005,-0.2353 0.7194,-0.5423 0.9527,-0.9341 0.2334,-0.3925 0.3549,-0.8222 0.3549,-1.2893 v -34.1328 c 0,-0.4861 -0.1193,-0.9261 -0.3549,-1.3173 -0.2311,-0.3838 -0.5522,-0.6895 -0.9527,-0.9155 -0.3935,-0.2221 -0.8316,-0.3455 -1.3266,-0.3455 h -5.1003 c -0.4761,0 -0.9052,0.1237 -1.289,0.3455 -0.3912,0.2263 -0.703,0.5317 -0.9341,0.9155 -0.2356,0.3912 -0.3552,0.8316 -0.3552,1.3173 z m 25.5581,2.522 c 0.4764,0 0.9049,-0.1235 1.289,-0.3549 0.3908,-0.2353 0.7007,-0.5419 0.9341,-0.9341 0.2333,-0.3922 0.3549,-0.8222 0.3549,-1.2893 v -23.5211 l 15.1331,23.5211 c 0.3028,0.4703 0.6747,0.8949 1.1115,1.2893 0.4317,0.3899 0.8968,0.7007 1.3919,0.9341 0.4946,0.2334 0.99,0.3549 1.4757,0.3549 h 9.0797 c 0.4954,0 0.9345,-0.1215 1.3173,-0.3549 0.3828,-0.2334 0.6914,-0.5419 0.9155,-0.9341 0.224,-0.3922 0.3455,-0.8222 0.3455,-1.2893 v -34.1328 c 0,-0.4861 -0.1196,-0.9261 -0.3455,-1.3173 -0.2222,-0.3838 -0.5327,-0.6914 -0.9155,-0.9155 -0.3828,-0.224 -0.8223,-0.3455 -1.3173,-0.3455 h -4.7078 c -0.4667,0 -0.9052,0.1234 -1.2893,0.3455 -0.3909,0.226 -0.7062,0.5198 -0.9341,0.8968 -0.2295,0.3793 -0.3549,0.813 -0.3549,1.2797 v 25.5391 l -16.5339,-25.4828 c -0.2861,-0.4414 -0.6355,-0.8503 -1.0463,-1.2424 -0.4111,-0.3922 -0.8615,-0.7069 -1.3266,-0.9531 -0.4687,-0.2485 -0.9251,-0.3828 -1.3825,-0.3828 h -8.0708 c -0.476,0 -0.8984,0.1196 -1.2796,0.3548 -0.3751,0.2315 -0.6709,0.5433 -0.8968,0.9342 -0.2222,0.3841 -0.3459,0.8225 -0.3459,1.2893 v 34.1328 c 0,0.4667 0.1218,0.8968 0.3552,1.2893 0.2333,0.3918 0.5429,0.6985 0.9341,0.9341 0.3838,0.2311 0.8126,0.3549 1.289,0.3549 z m 63.5386,-39.2894 c -0.4857,0.009 -0.9248,0.1215 -1.317,0.3548 -0.3831,0.2431 -0.6914,0.5513 -0.9154,0.9528 -0.2244,0.3925 -0.3363,0.8409 -0.3459,1.3266 v 34.1332 c 0.01,0.4763 0.1215,0.8965 0.3552,1.2796 0.2334,0.3735 0.5416,0.6725 0.9341,0.8968 0.3828,0.2241 0.8126,0.3363 1.289,0.3456 h 31.5549 c 0.4763,-0.009 0.9061,-0.1215 1.2893,-0.3456 0.3921,-0.2243 0.7004,-0.5326 0.9341,-0.9154 0.2333,-0.3925 0.3455,-0.8316 0.3548,-1.3173 v -2.578 c -0.009,-0.4953 -0.1215,-0.9247 -0.3548,-1.3172 -0.2337,-0.3832 -0.542,-0.6914 -0.9341,-0.9155 -0.3832,-0.224 -0.813,-0.3362 -1.2893,-0.3455 h -23.8204 v -28.9207 c -0.009,-0.4857 -0.1212,-0.9341 -0.3456,-1.3266 -0.224,-0.4015 -0.5323,-0.7097 -0.9154,-0.9528 -0.3922,-0.2333 -0.8219,-0.3455 -1.317,-0.3548 z m 38.6169,36.7674 c 0.01,0.467 0.1215,0.8965 0.3552,1.2703 0.2334,0.3828 0.5416,0.6818 0.9341,0.9061 0.3829,0.2241 0.8126,0.3363 1.289,0.3456 h 5.1003 c 0.4953,-0.009 0.9341,-0.1215 1.3266,-0.3549 0.4018,-0.2337 0.7194,-0.5419 0.9527,-0.9341 0.2337,-0.3925 0.3456,-0.8222 0.3549,-1.2893 v -34.1328 c -0.009,-0.4861 -0.1212,-0.9248 -0.3549,-1.3173 -0.2333,-0.3828 -0.5509,-0.6911 -0.9527,-0.9155 -0.3925,-0.224 -0.8313,-0.3455 -1.3266,-0.3455 h -5.1003 c -0.4764,0 -0.9061,0.1215 -1.289,0.3455 -0.3925,0.2244 -0.7007,0.5327 -0.9341,0.9155 -0.2337,0.3925 -0.3455,0.8312 -0.3552,1.3173 z m 25.5581,2.522 c 0.4764,-0.009 0.9058,-0.1215 1.289,-0.3549 0.3922,-0.2337 0.7004,-0.5419 0.9341,-0.9341 0.2334,-0.3925 0.3456,-0.8222 0.3549,-1.2893 v -23.5211 l 15.1331,23.5211 c 0.3083,0.4671 0.6724,0.8968 1.1115,1.2893 0.4298,0.3922 0.8969,0.7004 1.3919,0.9341 0.495,0.2334 0.99,0.3456 1.4757,0.3549 h 9.0797 c 0.4954,-0.009 0.9342,-0.1215 1.3173,-0.3549 0.3828,-0.2337 0.6911,-0.5419 0.9155,-0.9341 0.224,-0.3925 0.3455,-0.8222 0.3455,-1.2893 v -34.1328 c 0,-0.4861 -0.1215,-0.9248 -0.3455,-1.3173 -0.2244,-0.3828 -0.5327,-0.6911 -0.9155,-0.9155 -0.3831,-0.224 -0.8219,-0.3455 -1.3173,-0.3455 h -4.7078 c -0.467,0 -0.9061,0.1215 -1.2893,0.3455 -0.3921,0.2244 -0.7004,0.523 -0.9341,0.8968 -0.224,0.3829 -0.3455,0.8126 -0.3549,1.2797 v 25.5391 l -16.5339,-25.4828 c -0.2896,-0.4391 -0.6352,-0.8503 -1.0463,-1.2424 -0.4111,-0.3925 -0.8595,-0.7101 -1.3266,-0.9531 -0.467,-0.252 -0.9248,-0.3735 -1.3825,-0.3828 h -8.0707 c -0.4764,0.009 -0.8969,0.1215 -1.2797,0.3548 -0.3738,0.2337 -0.6728,0.542 -0.8968,0.9342 -0.2244,0.3831 -0.3362,0.8222 -0.3459,1.2893 v 34.1328 c 0.01,0.4671 0.1215,0.8968 0.3552,1.2893 0.2334,0.3922 0.5416,0.7004 0.9341,0.9341 0.3828,0.2334 0.8126,0.3456 1.289,0.3549 z m 74.5258,-39.2894 h -31.5549 c -0.4758,0 -0.9033,0.1276 -1.289,0.3455 -0.3889,0.2202 -0.703,0.522 -0.9341,0.8968 -0.2353,0.3813 -0.3552,0.804 -0.3552,1.2797 v 34.1332 c 0,0.4943 0.1238,0.9334 0.3459,1.3266 0.2256,0.4001 0.5336,0.7087 0.9154,0.9434 0.3928,0.2411 0.8313,0.3642 1.317,0.3642 h 31.4427 c 0.4953,0 0.9264,-0.1196 1.3173,-0.3549 0.3838,-0.2314 0.6894,-0.5436 0.9154,-0.9341 0.2218,-0.3841 0.3456,-0.8129 0.3456,-1.2893 v -2.6342 c 0,-0.4764 -0.1196,-0.8984 -0.3456,-1.2797 -0.2218,-0.3748 -0.5223,-0.675 -0.8968,-0.8968 -0.3816,-0.2256 -0.8039,-0.3455 -1.2797,-0.3455 h -23.7644 v -8.0711 h 20.5137 c 0.4764,0 0.9052,-0.1234 1.289,-0.3549 0.3909,-0.2353 0.6988,-0.5435 0.9341,-0.9341 0.2311,-0.3844 0.3549,-0.8126 0.3549,-1.289 v -2.5782 c 0,-0.4764 -0.1238,-0.9052 -0.3549,-1.2893 -0.2353,-0.3906 -0.5429,-0.6988 -0.9341,-0.9341 -0.3835,-0.2312 -0.8133,-0.3549 -1.289,-0.3549 h -20.5137 v -8.0148 h 23.8204 c 0.4763,0 0.9051,-0.1238 1.2893,-0.3456 0.3905,-0.2259 0.7026,-0.5316 0.9341,-0.9154 0.2353,-0.3909 0.3548,-0.8316 0.3548,-1.3173 v -2.5779 c 0,-0.4954 -0.1215,-0.9345 -0.3548,-1.3173 -0.2334,-0.3828 -0.5436,-0.6895 -0.9341,-0.9155 -0.3842,-0.2218 -0.813,-0.3455 -1.2893,-0.3455 z"
     style="fill:white;fill-rule:evenodd"
     id="path2" />
  <path
     d="M 193.27352,75.4679 V 63.9277 h 23.5544 8.9679 v -6.7868 h -32.5221 l -2e-4,-28.3181 h 13.324 v 15.701 h 19.1983 v -15.701 h 14.0033 c 0,15.4899 4e-4,31.1546 1e-4,46.6445 z"
     style="fill:#e63114;fill-rule:evenodd"
     id="path8" />
  <path
     d="m 206.59772,28.8229 -6.6621,8.2136 0.074,13.4442 6.5881,-5.9569 z"
     style="fill:#8b1312;fill-rule:evenodd"
     id="path10" />
  <path
     d="m 193.27382,57.1409 6.742,-6.662 h 32.7391 l -6.9591,6.662 z"
     style="fill:#8b1312;fill-rule:evenodd"
     id="path12" />
  <path
     d="m 239.85402,75.467 -0.055,-46.6443 -7.0444,8.2138 v 32.6542 h -32.559 l -6.867,5.7767 c 15.5089,0 31.0175,-4e-4 46.5254,-4e-4 z"
     style="fill:#8b1312;fill-rule:evenodd"
     id="path14" />
  <path
     d="m 216.55092,92.2855 c -22.1037,0 -40.133,-18.0293 -40.133,-40.133 0,-22.1037 18.0293,-40.1329 40.133,-40.1329 22.1037,0 40.133,18.0292 40.133,40.1329 0,22.1037 -18.0293,40.133 -40.133,40.133 z m 0,12.0195 c -28.7246,0 -52.1525,-23.4279 -52.1525,-52.1525 0,-28.7246 23.4279,-52.1525 52.1525,-52.1525 28.7246,0 52.1525,23.4279 52.1525,52.1525 0,28.7246 -23.4279,52.1525 -52.1525,52.1525 z"
     style="fill:#e63114;fill-rule:evenodd"
     id="path16" />
</svg>
